# xmcd CD database file
#
# Track frame offsets:
#	150
#	34938
#	67044
#	92982
#	127499
#	153278
#	177062
#	203378
#	230669
#	265387
#
# Disc length: 3908 seconds
#
# Revision: 0
# Processed by: cddbd v1.5.2PL0 Copyright (c) Steve Scherf et al.
# Submitted via: CDex 1.70beta1
#
DISCID=8e0f420a
DTITLE=Brian Dickinson and Ted Quinlan  - Around The Bend
DYEAR=2010
DGENRE=Jazz
TTITLE0=Around The Bend
TTITLE1=Monk's Dream
TTITLE2=Pastiche
TTITLE3=Vibrolux
TTITLE4=Rockin' At The Hillside
TTITLE5=The Fischer King
TTITLE6=Speakeasy
TTITLE7=Limbo
TTITLE8=Love Theme from "Spartacus"
TTITLE9=Moonshower
EXTD=YEAR: 2010
EXTT0=
EXTT1=
EXTT2=
EXTT3=
EXTT4=
EXTT5=
EXTT6=
EXTT7=
EXTT8=
EXTT9=
PLAYORDER=
